<mxfile host="app.diagrams.net" agent="Mozilla/5.0 (Windows NT 10.0; Win64; x64) AppleWebKit/537.36 (KHTML, like Gecko) Chrome/133.0.0.0 Safari/537.36 OPR/118.0.0.0" version="27.1.1">
  <diagram id="C5RBs43oDa-KdzZeNtuy" name="Page-1">
    <mxGraphModel dx="2121" dy="1750" grid="1" gridSize="10" guides="1" tooltips="1" connect="1" arrows="1" fold="1" page="1" pageScale="1" pageWidth="827" pageHeight="1169" math="0" shadow="0">
      <root>
        <mxCell id="WIyWlLk6GJQsqaUBKTNV-0" />
        <mxCell id="WIyWlLk6GJQsqaUBKTNV-1" parent="WIyWlLk6GJQsqaUBKTNV-0" />
        <mxCell id="jZNxcZ7v8EToszQoS8cT-0" value="Sistema" style="swimlane;fontStyle=0;childLayout=stackLayout;horizontal=1;startSize=26;fillColor=none;horizontalStack=0;resizeParent=1;resizeParentMax=0;resizeLast=0;collapsible=1;marginBottom=0;whiteSpace=wrap;html=1;" parent="WIyWlLk6GJQsqaUBKTNV-1" vertex="1">
          <mxGeometry x="-90" y="-76" width="140" height="76" as="geometry" />
        </mxCell>
        <mxCell id="jZNxcZ7v8EToszQoS8cT-1" value="+ nome: string" style="text;strokeColor=none;fillColor=none;align=left;verticalAlign=top;spacingLeft=4;spacingRight=4;overflow=hidden;rotatable=0;points=[[0,0.5],[1,0.5]];portConstraint=eastwest;whiteSpace=wrap;html=1;" parent="jZNxcZ7v8EToszQoS8cT-0" vertex="1">
          <mxGeometry y="26" width="140" height="24" as="geometry" />
        </mxCell>
        <mxCell id="jZNxcZ7v8EToszQoS8cT-2" value="+ versao: string" style="text;strokeColor=none;fillColor=none;align=left;verticalAlign=top;spacingLeft=4;spacingRight=4;overflow=hidden;rotatable=0;points=[[0,0.5],[1,0.5]];portConstraint=eastwest;whiteSpace=wrap;html=1;" parent="jZNxcZ7v8EToszQoS8cT-0" vertex="1">
          <mxGeometry y="50" width="140" height="26" as="geometry" />
        </mxCell>
        <mxCell id="jZNxcZ7v8EToszQoS8cT-37" value="Organiza" style="endArrow=open;html=1;endSize=12;startArrow=diamondThin;startSize=14;startFill=0;edgeStyle=orthogonalEdgeStyle;rounded=0;exitX=0.521;exitY=1;exitDx=0;exitDy=0;exitPerimeter=0;entryX=0.633;entryY=0.024;entryDx=0;entryDy=0;entryPerimeter=0;" parent="jZNxcZ7v8EToszQoS8cT-0" target="jZNxcZ7v8EToszQoS8cT-17" edge="1">
          <mxGeometry x="-0.1716" y="28" relative="1" as="geometry">
            <mxPoint x="71.47000000000006" y="76" as="sourcePoint" />
            <mxPoint x="68.53" y="247" as="targetPoint" />
            <Array as="points" />
            <mxPoint y="-1" as="offset" />
          </mxGeometry>
        </mxCell>
        <mxCell id="jZNxcZ7v8EToszQoS8cT-38" value="1-N" style="edgeLabel;resizable=0;html=1;align=left;verticalAlign=top;" parent="jZNxcZ7v8EToszQoS8cT-37" connectable="0" vertex="1">
          <mxGeometry x="-1" relative="1" as="geometry">
            <mxPoint x="9" as="offset" />
          </mxGeometry>
        </mxCell>
        <mxCell id="jZNxcZ7v8EToszQoS8cT-4" value="Desconto" style="swimlane;fontStyle=1;align=center;verticalAlign=top;childLayout=stackLayout;horizontal=1;startSize=26;horizontalStack=0;resizeParent=1;resizeParentMax=0;resizeLast=0;collapsible=1;marginBottom=0;whiteSpace=wrap;html=1;" parent="WIyWlLk6GJQsqaUBKTNV-1" vertex="1">
          <mxGeometry x="-370" y="312" width="160" height="86" as="geometry" />
        </mxCell>
        <mxCell id="jZNxcZ7v8EToszQoS8cT-5" value="+ id: int" style="text;strokeColor=none;fillColor=none;align=left;verticalAlign=top;spacingLeft=4;spacingRight=4;overflow=hidden;rotatable=0;points=[[0,0.5],[1,0.5]];portConstraint=eastwest;whiteSpace=wrap;html=1;" parent="jZNxcZ7v8EToszQoS8cT-4" vertex="1">
          <mxGeometry y="26" width="160" height="26" as="geometry" />
        </mxCell>
        <mxCell id="jZNxcZ7v8EToszQoS8cT-6" value="" style="line;strokeWidth=1;fillColor=none;align=left;verticalAlign=middle;spacingTop=-1;spacingLeft=3;spacingRight=3;rotatable=0;labelPosition=right;points=[];portConstraint=eastwest;strokeColor=inherit;" parent="jZNxcZ7v8EToszQoS8cT-4" vertex="1">
          <mxGeometry y="52" width="160" height="8" as="geometry" />
        </mxCell>
        <mxCell id="jZNxcZ7v8EToszQoS8cT-7" value="+ percentual: double" style="text;strokeColor=none;fillColor=none;align=left;verticalAlign=top;spacingLeft=4;spacingRight=4;overflow=hidden;rotatable=0;points=[[0,0.5],[1,0.5]];portConstraint=eastwest;whiteSpace=wrap;html=1;" parent="jZNxcZ7v8EToszQoS8cT-4" vertex="1">
          <mxGeometry y="60" width="160" height="26" as="geometry" />
        </mxCell>
        <mxCell id="jZNxcZ7v8EToszQoS8cT-14" value="Gera" style="endArrow=open;html=1;endSize=12;startArrow=diamondThin;startSize=14;startFill=0;edgeStyle=orthogonalEdgeStyle;rounded=0;exitX=0;exitY=0.5;exitDx=0;exitDy=0;entryX=0.5;entryY=0;entryDx=0;entryDy=0;" parent="WIyWlLk6GJQsqaUBKTNV-1" source="jZNxcZ7v8EToszQoS8cT-2" target="jZNxcZ7v8EToszQoS8cT-4" edge="1">
          <mxGeometry x="-0.0006" relative="1" as="geometry">
            <mxPoint x="-190" y="170" as="sourcePoint" />
            <mxPoint x="-30" y="170" as="targetPoint" />
            <mxPoint as="offset" />
          </mxGeometry>
        </mxCell>
        <mxCell id="jZNxcZ7v8EToszQoS8cT-15" value="1-N" style="edgeLabel;resizable=0;html=1;align=left;verticalAlign=top;" parent="jZNxcZ7v8EToszQoS8cT-14" connectable="0" vertex="1">
          <mxGeometry x="-1" relative="1" as="geometry">
            <mxPoint x="-40" y="-22" as="offset" />
          </mxGeometry>
        </mxCell>
        <mxCell id="jZNxcZ7v8EToszQoS8cT-17" value="Doacao" style="swimlane;fontStyle=1;align=center;verticalAlign=top;childLayout=stackLayout;horizontal=1;startSize=26;horizontalStack=0;resizeParent=1;resizeParentMax=0;resizeLast=0;collapsible=1;marginBottom=0;whiteSpace=wrap;html=1;" parent="WIyWlLk6GJQsqaUBKTNV-1" vertex="1">
          <mxGeometry x="-120" y="286" width="160" height="138" as="geometry">
            <mxRectangle x="-110" y="181" width="100" height="30" as="alternateBounds" />
          </mxGeometry>
        </mxCell>
        <mxCell id="jZNxcZ7v8EToszQoS8cT-18" value="+ id: int" style="text;strokeColor=none;fillColor=none;align=left;verticalAlign=top;spacingLeft=4;spacingRight=4;overflow=hidden;rotatable=0;points=[[0,0.5],[1,0.5]];portConstraint=eastwest;whiteSpace=wrap;html=1;" parent="jZNxcZ7v8EToszQoS8cT-17" vertex="1">
          <mxGeometry y="26" width="160" height="26" as="geometry" />
        </mxCell>
        <mxCell id="jZNxcZ7v8EToszQoS8cT-30" value="+ quantidade: int" style="text;strokeColor=none;fillColor=none;align=left;verticalAlign=top;spacingLeft=4;spacingRight=4;overflow=hidden;rotatable=0;points=[[0,0.5],[1,0.5]];portConstraint=eastwest;whiteSpace=wrap;html=1;" parent="jZNxcZ7v8EToszQoS8cT-17" vertex="1">
          <mxGeometry y="52" width="160" height="26" as="geometry" />
        </mxCell>
        <mxCell id="jZNxcZ7v8EToszQoS8cT-31" value="+ instituição: string" style="text;strokeColor=none;fillColor=none;align=left;verticalAlign=top;spacingLeft=4;spacingRight=4;overflow=hidden;rotatable=0;points=[[0,0.5],[1,0.5]];portConstraint=eastwest;whiteSpace=wrap;html=1;" parent="jZNxcZ7v8EToszQoS8cT-17" vertex="1">
          <mxGeometry y="78" width="160" height="26" as="geometry" />
        </mxCell>
        <mxCell id="jZNxcZ7v8EToszQoS8cT-33" value="+ dataAgendada: date" style="text;strokeColor=none;fillColor=none;align=left;verticalAlign=top;spacingLeft=4;spacingRight=4;overflow=hidden;rotatable=0;points=[[0,0.5],[1,0.5]];portConstraint=eastwest;whiteSpace=wrap;html=1;" parent="jZNxcZ7v8EToszQoS8cT-17" vertex="1">
          <mxGeometry y="104" width="160" height="26" as="geometry" />
        </mxCell>
        <mxCell id="jZNxcZ7v8EToszQoS8cT-19" value="" style="line;strokeWidth=1;fillColor=none;align=left;verticalAlign=middle;spacingTop=-1;spacingLeft=3;spacingRight=3;rotatable=0;labelPosition=right;points=[];portConstraint=eastwest;strokeColor=inherit;" parent="jZNxcZ7v8EToszQoS8cT-17" vertex="1">
          <mxGeometry y="130" width="160" height="8" as="geometry" />
        </mxCell>
        <mxCell id="jZNxcZ7v8EToszQoS8cT-40" value="Previsão Demanda" style="swimlane;fontStyle=0;childLayout=stackLayout;horizontal=1;startSize=26;fillColor=none;horizontalStack=0;resizeParent=1;resizeParentMax=0;resizeLast=0;collapsible=1;marginBottom=0;whiteSpace=wrap;html=1;" parent="WIyWlLk6GJQsqaUBKTNV-1" vertex="1">
          <mxGeometry x="140" y="277" width="170" height="156" as="geometry" />
        </mxCell>
        <mxCell id="jZNxcZ7v8EToszQoS8cT-41" value="+ id: int" style="text;strokeColor=none;fillColor=none;align=left;verticalAlign=top;spacingLeft=4;spacingRight=4;overflow=hidden;rotatable=0;points=[[0,0.5],[1,0.5]];portConstraint=eastwest;whiteSpace=wrap;html=1;" parent="jZNxcZ7v8EToszQoS8cT-40" vertex="1">
          <mxGeometry y="26" width="170" height="26" as="geometry" />
        </mxCell>
        <mxCell id="jZNxcZ7v8EToszQoS8cT-42" value="+ dateAnalise: date" style="text;strokeColor=none;fillColor=none;align=left;verticalAlign=top;spacingLeft=4;spacingRight=4;overflow=hidden;rotatable=0;points=[[0,0.5],[1,0.5]];portConstraint=eastwest;whiteSpace=wrap;html=1;" parent="jZNxcZ7v8EToszQoS8cT-40" vertex="1">
          <mxGeometry y="52" width="170" height="26" as="geometry" />
        </mxCell>
        <mxCell id="jZNxcZ7v8EToszQoS8cT-43" value="+ quantPrevista: int" style="text;strokeColor=none;fillColor=none;align=left;verticalAlign=top;spacingLeft=4;spacingRight=4;overflow=hidden;rotatable=0;points=[[0,0.5],[1,0.5]];portConstraint=eastwest;whiteSpace=wrap;html=1;" parent="jZNxcZ7v8EToszQoS8cT-40" vertex="1">
          <mxGeometry y="78" width="170" height="26" as="geometry" />
        </mxCell>
        <mxCell id="jZNxcZ7v8EToszQoS8cT-44" value="+ sazonalidade: string" style="text;strokeColor=none;fillColor=none;align=left;verticalAlign=top;spacingLeft=4;spacingRight=4;overflow=hidden;rotatable=0;points=[[0,0.5],[1,0.5]];portConstraint=eastwest;whiteSpace=wrap;html=1;" parent="jZNxcZ7v8EToszQoS8cT-40" vertex="1">
          <mxGeometry y="104" width="170" height="26" as="geometry" />
        </mxCell>
        <mxCell id="jZNxcZ7v8EToszQoS8cT-45" value="+ clima: string" style="text;strokeColor=none;fillColor=none;align=left;verticalAlign=top;spacingLeft=4;spacingRight=4;overflow=hidden;rotatable=0;points=[[0,0.5],[1,0.5]];portConstraint=eastwest;whiteSpace=wrap;html=1;" parent="jZNxcZ7v8EToszQoS8cT-40" vertex="1">
          <mxGeometry y="130" width="170" height="26" as="geometry" />
        </mxCell>
        <mxCell id="jZNxcZ7v8EToszQoS8cT-46" value="Relatório" style="swimlane;fontStyle=0;childLayout=stackLayout;horizontal=1;startSize=26;fillColor=none;horizontalStack=0;resizeParent=1;resizeParentMax=0;resizeLast=0;collapsible=1;marginBottom=0;whiteSpace=wrap;html=1;" parent="WIyWlLk6GJQsqaUBKTNV-1" vertex="1">
          <mxGeometry x="400" y="270" width="160" height="130" as="geometry" />
        </mxCell>
        <mxCell id="jZNxcZ7v8EToszQoS8cT-47" value="+ id: int" style="text;strokeColor=none;fillColor=none;align=left;verticalAlign=top;spacingLeft=4;spacingRight=4;overflow=hidden;rotatable=0;points=[[0,0.5],[1,0.5]];portConstraint=eastwest;whiteSpace=wrap;html=1;" parent="jZNxcZ7v8EToszQoS8cT-46" vertex="1">
          <mxGeometry y="26" width="160" height="26" as="geometry" />
        </mxCell>
        <mxCell id="jZNxcZ7v8EToszQoS8cT-48" value="+ tipo: string" style="text;strokeColor=none;fillColor=none;align=left;verticalAlign=top;spacingLeft=4;spacingRight=4;overflow=hidden;rotatable=0;points=[[0,0.5],[1,0.5]];portConstraint=eastwest;whiteSpace=wrap;html=1;" parent="jZNxcZ7v8EToszQoS8cT-46" vertex="1">
          <mxGeometry y="52" width="160" height="26" as="geometry" />
        </mxCell>
        <mxCell id="jZNxcZ7v8EToszQoS8cT-50" value="+ conteudo: string" style="text;strokeColor=none;fillColor=none;align=left;verticalAlign=top;spacingLeft=4;spacingRight=4;overflow=hidden;rotatable=0;points=[[0,0.5],[1,0.5]];portConstraint=eastwest;whiteSpace=wrap;html=1;" parent="jZNxcZ7v8EToszQoS8cT-46" vertex="1">
          <mxGeometry y="78" width="160" height="26" as="geometry" />
        </mxCell>
        <mxCell id="jZNxcZ7v8EToszQoS8cT-49" value="+ dataGeracao: date" style="text;strokeColor=none;fillColor=none;align=left;verticalAlign=top;spacingLeft=4;spacingRight=4;overflow=hidden;rotatable=0;points=[[0,0.5],[1,0.5]];portConstraint=eastwest;whiteSpace=wrap;html=1;" parent="jZNxcZ7v8EToszQoS8cT-46" vertex="1">
          <mxGeometry y="104" width="160" height="26" as="geometry" />
        </mxCell>
        <mxCell id="jZNxcZ7v8EToszQoS8cT-51" value="Estoque" style="swimlane;fontStyle=0;childLayout=stackLayout;horizontal=1;startSize=26;fillColor=none;horizontalStack=0;resizeParent=1;resizeParentMax=0;resizeLast=0;collapsible=1;marginBottom=0;whiteSpace=wrap;html=1;" parent="WIyWlLk6GJQsqaUBKTNV-1" vertex="1">
          <mxGeometry x="710" y="270" width="160" height="104" as="geometry" />
        </mxCell>
        <mxCell id="jZNxcZ7v8EToszQoS8cT-52" value="+ id: int" style="text;strokeColor=none;fillColor=none;align=left;verticalAlign=top;spacingLeft=4;spacingRight=4;overflow=hidden;rotatable=0;points=[[0,0.5],[1,0.5]];portConstraint=eastwest;whiteSpace=wrap;html=1;" parent="jZNxcZ7v8EToszQoS8cT-51" vertex="1">
          <mxGeometry y="26" width="160" height="26" as="geometry" />
        </mxCell>
        <mxCell id="jZNxcZ7v8EToszQoS8cT-53" value="+ quantidade: int" style="text;strokeColor=none;fillColor=none;align=left;verticalAlign=top;spacingLeft=4;spacingRight=4;overflow=hidden;rotatable=0;points=[[0,0.5],[1,0.5]];portConstraint=eastwest;whiteSpace=wrap;html=1;" parent="jZNxcZ7v8EToszQoS8cT-51" vertex="1">
          <mxGeometry y="52" width="160" height="26" as="geometry" />
        </mxCell>
        <mxCell id="jZNxcZ7v8EToszQoS8cT-54" value="+ dataEntrada: date" style="text;strokeColor=none;fillColor=none;align=left;verticalAlign=top;spacingLeft=4;spacingRight=4;overflow=hidden;rotatable=0;points=[[0,0.5],[1,0.5]];portConstraint=eastwest;whiteSpace=wrap;html=1;" parent="jZNxcZ7v8EToszQoS8cT-51" vertex="1">
          <mxGeometry y="78" width="160" height="26" as="geometry" />
        </mxCell>
        <mxCell id="jZNxcZ7v8EToszQoS8cT-55" value="Produto" style="swimlane;fontStyle=0;childLayout=stackLayout;horizontal=1;startSize=26;fillColor=none;horizontalStack=0;resizeParent=1;resizeParentMax=0;resizeLast=0;collapsible=1;marginBottom=0;whiteSpace=wrap;html=1;" parent="WIyWlLk6GJQsqaUBKTNV-1" vertex="1">
          <mxGeometry y="630" width="265" height="156" as="geometry" />
        </mxCell>
        <mxCell id="jZNxcZ7v8EToszQoS8cT-56" value="+ id: int" style="text;strokeColor=none;fillColor=none;align=left;verticalAlign=top;spacingLeft=4;spacingRight=4;overflow=hidden;rotatable=0;points=[[0,0.5],[1,0.5]];portConstraint=eastwest;whiteSpace=wrap;html=1;" parent="jZNxcZ7v8EToszQoS8cT-55" vertex="1">
          <mxGeometry y="26" width="265" height="26" as="geometry" />
        </mxCell>
        <mxCell id="jZNxcZ7v8EToszQoS8cT-57" value="+ nome: string" style="text;strokeColor=none;fillColor=none;align=left;verticalAlign=top;spacingLeft=4;spacingRight=4;overflow=hidden;rotatable=0;points=[[0,0.5],[1,0.5]];portConstraint=eastwest;whiteSpace=wrap;html=1;" parent="jZNxcZ7v8EToszQoS8cT-55" vertex="1">
          <mxGeometry y="52" width="265" height="26" as="geometry" />
        </mxCell>
        <mxCell id="jZNxcZ7v8EToszQoS8cT-58" value="+ categoria: string" style="text;strokeColor=none;fillColor=none;align=left;verticalAlign=top;spacingLeft=4;spacingRight=4;overflow=hidden;rotatable=0;points=[[0,0.5],[1,0.5]];portConstraint=eastwest;whiteSpace=wrap;html=1;" parent="jZNxcZ7v8EToszQoS8cT-55" vertex="1">
          <mxGeometry y="78" width="265" height="26" as="geometry" />
        </mxCell>
        <mxCell id="jZNxcZ7v8EToszQoS8cT-59" value="+ dataValidade: date" style="text;strokeColor=none;fillColor=none;align=left;verticalAlign=top;spacingLeft=4;spacingRight=4;overflow=hidden;rotatable=0;points=[[0,0.5],[1,0.5]];portConstraint=eastwest;whiteSpace=wrap;html=1;" parent="jZNxcZ7v8EToszQoS8cT-55" vertex="1">
          <mxGeometry y="104" width="265" height="26" as="geometry" />
        </mxCell>
        <mxCell id="jZNxcZ7v8EToszQoS8cT-60" value="+ preco: double" style="text;strokeColor=none;fillColor=none;align=left;verticalAlign=top;spacingLeft=4;spacingRight=4;overflow=hidden;rotatable=0;points=[[0,0.5],[1,0.5]];portConstraint=eastwest;whiteSpace=wrap;html=1;" parent="jZNxcZ7v8EToszQoS8cT-55" vertex="1">
          <mxGeometry y="130" width="265" height="26" as="geometry" />
        </mxCell>
        <mxCell id="jZNxcZ7v8EToszQoS8cT-61" value="Possui" style="endArrow=open;html=1;endSize=12;startArrow=diamondThin;startSize=14;startFill=0;edgeStyle=orthogonalEdgeStyle;rounded=0;exitX=0.558;exitY=1.109;exitDx=0;exitDy=0;exitPerimeter=0;entryX=1;entryY=0.5;entryDx=0;entryDy=0;" parent="WIyWlLk6GJQsqaUBKTNV-1" target="jZNxcZ7v8EToszQoS8cT-56" edge="1">
          <mxGeometry relative="1" as="geometry">
            <mxPoint x="819.2800000000002" y="374.00399999999985" as="sourcePoint" />
            <mxPoint x="280" y="677" as="targetPoint" />
            <Array as="points">
              <mxPoint x="819" y="677" />
              <mxPoint x="265" y="677" />
            </Array>
          </mxGeometry>
        </mxCell>
        <mxCell id="jZNxcZ7v8EToszQoS8cT-62" value="1-1" style="edgeLabel;resizable=0;html=1;align=left;verticalAlign=top;" parent="jZNxcZ7v8EToszQoS8cT-61" connectable="0" vertex="1">
          <mxGeometry x="-1" relative="1" as="geometry">
            <mxPoint x="8" as="offset" />
          </mxGeometry>
        </mxCell>
        <mxCell id="jZNxcZ7v8EToszQoS8cT-64" value="Possui" style="endArrow=open;html=1;endSize=12;startArrow=diamondThin;startSize=14;startFill=0;edgeStyle=orthogonalEdgeStyle;rounded=0;exitX=0.467;exitY=1.015;exitDx=0;exitDy=0;exitPerimeter=0;entryX=0;entryY=0.5;entryDx=0;entryDy=0;" parent="WIyWlLk6GJQsqaUBKTNV-1" source="jZNxcZ7v8EToszQoS8cT-19" target="jZNxcZ7v8EToszQoS8cT-56" edge="1">
          <mxGeometry relative="1" as="geometry">
            <mxPoint x="-60" y="520" as="sourcePoint" />
            <mxPoint x="100" y="520" as="targetPoint" />
          </mxGeometry>
        </mxCell>
        <mxCell id="jZNxcZ7v8EToszQoS8cT-65" value="1-1" style="edgeLabel;resizable=0;html=1;align=left;verticalAlign=top;" parent="jZNxcZ7v8EToszQoS8cT-64" connectable="0" vertex="1">
          <mxGeometry x="-1" relative="1" as="geometry">
            <mxPoint x="5" as="offset" />
          </mxGeometry>
        </mxCell>
        <mxCell id="jZNxcZ7v8EToszQoS8cT-67" value="Compoe" style="endArrow=open;html=1;endSize=12;startArrow=diamondThin;startSize=14;startFill=0;edgeStyle=orthogonalEdgeStyle;rounded=0;entryX=0.85;entryY=0;entryDx=0;entryDy=0;entryPerimeter=0;" parent="WIyWlLk6GJQsqaUBKTNV-1" target="jZNxcZ7v8EToszQoS8cT-55" edge="1">
          <mxGeometry x="0.003" relative="1" as="geometry">
            <mxPoint x="227" y="440" as="sourcePoint" />
            <mxPoint x="226.85000000000002" y="584.74" as="targetPoint" />
            <mxPoint as="offset" />
          </mxGeometry>
        </mxCell>
        <mxCell id="jZNxcZ7v8EToszQoS8cT-68" value="1-1" style="edgeLabel;resizable=0;html=1;align=left;verticalAlign=top;" parent="jZNxcZ7v8EToszQoS8cT-67" connectable="0" vertex="1">
          <mxGeometry x="-1" relative="1" as="geometry">
            <mxPoint x="13" as="offset" />
          </mxGeometry>
        </mxCell>
        <mxCell id="jZNxcZ7v8EToszQoS8cT-70" value="Possui" style="endArrow=open;html=1;endSize=12;startArrow=diamondThin;startSize=14;startFill=0;edgeStyle=orthogonalEdgeStyle;rounded=0;exitX=0.454;exitY=1.183;exitDx=0;exitDy=0;exitPerimeter=0;entryX=0;entryY=0.5;entryDx=0;entryDy=0;" parent="WIyWlLk6GJQsqaUBKTNV-1" source="jZNxcZ7v8EToszQoS8cT-7" target="jZNxcZ7v8EToszQoS8cT-59" edge="1">
          <mxGeometry relative="1" as="geometry">
            <mxPoint x="-340" y="628.1800000000001" as="sourcePoint" />
            <mxPoint x="-180" y="628.1800000000001" as="targetPoint" />
            <Array as="points">
              <mxPoint x="-297" y="747" />
            </Array>
          </mxGeometry>
        </mxCell>
        <mxCell id="jZNxcZ7v8EToszQoS8cT-71" value="1-1" style="edgeLabel;resizable=0;html=1;align=left;verticalAlign=top;" parent="jZNxcZ7v8EToszQoS8cT-70" connectable="0" vertex="1">
          <mxGeometry x="-1" relative="1" as="geometry">
            <mxPoint x="7" as="offset" />
          </mxGeometry>
        </mxCell>
        <mxCell id="jZNxcZ7v8EToszQoS8cT-73" value="Gera" style="endArrow=open;html=1;endSize=12;startArrow=diamondThin;startSize=14;startFill=0;edgeStyle=orthogonalEdgeStyle;rounded=0;exitX=1;exitY=0.5;exitDx=0;exitDy=0;" parent="WIyWlLk6GJQsqaUBKTNV-1" source="jZNxcZ7v8EToszQoS8cT-1" edge="1">
          <mxGeometry relative="1" as="geometry">
            <mxPoint x="170" y="120" as="sourcePoint" />
            <mxPoint x="430" y="270" as="targetPoint" />
            <Array as="points">
              <mxPoint x="430" y="-38" />
            </Array>
          </mxGeometry>
        </mxCell>
        <mxCell id="jZNxcZ7v8EToszQoS8cT-74" value="1-N" style="edgeLabel;resizable=0;html=1;align=left;verticalAlign=top;" parent="jZNxcZ7v8EToszQoS8cT-73" connectable="0" vertex="1">
          <mxGeometry x="-1" relative="1" as="geometry" />
        </mxCell>
        <mxCell id="jZNxcZ7v8EToszQoS8cT-79" value="Supermercado" style="swimlane;fontStyle=0;childLayout=stackLayout;horizontal=1;startSize=26;fillColor=none;horizontalStack=0;resizeParent=1;resizeParentMax=0;resizeLast=0;collapsible=1;marginBottom=0;whiteSpace=wrap;html=1;" parent="WIyWlLk6GJQsqaUBKTNV-1" vertex="1">
          <mxGeometry x="1010" y="-20" width="200" height="130" as="geometry" />
        </mxCell>
        <mxCell id="jZNxcZ7v8EToszQoS8cT-80" value="+ id: int" style="text;strokeColor=none;fillColor=none;align=left;verticalAlign=top;spacingLeft=4;spacingRight=4;overflow=hidden;rotatable=0;points=[[0,0.5],[1,0.5]];portConstraint=eastwest;whiteSpace=wrap;html=1;" parent="jZNxcZ7v8EToszQoS8cT-79" vertex="1">
          <mxGeometry y="26" width="200" height="26" as="geometry" />
        </mxCell>
        <mxCell id="jZNxcZ7v8EToszQoS8cT-81" value="+ nome: string" style="text;strokeColor=none;fillColor=none;align=left;verticalAlign=top;spacingLeft=4;spacingRight=4;overflow=hidden;rotatable=0;points=[[0,0.5],[1,0.5]];portConstraint=eastwest;whiteSpace=wrap;html=1;" parent="jZNxcZ7v8EToszQoS8cT-79" vertex="1">
          <mxGeometry y="52" width="200" height="26" as="geometry" />
        </mxCell>
        <mxCell id="jZNxcZ7v8EToszQoS8cT-82" value="+ cnpj: string" style="text;strokeColor=none;fillColor=none;align=left;verticalAlign=top;spacingLeft=4;spacingRight=4;overflow=hidden;rotatable=0;points=[[0,0.5],[1,0.5]];portConstraint=eastwest;whiteSpace=wrap;html=1;" parent="jZNxcZ7v8EToszQoS8cT-79" vertex="1">
          <mxGeometry y="78" width="200" height="26" as="geometry" />
        </mxCell>
        <mxCell id="jZNxcZ7v8EToszQoS8cT-83" value="+ endereco: string" style="text;strokeColor=none;fillColor=none;align=left;verticalAlign=top;spacingLeft=4;spacingRight=4;overflow=hidden;rotatable=0;points=[[0,0.5],[1,0.5]];portConstraint=eastwest;whiteSpace=wrap;html=1;" parent="jZNxcZ7v8EToszQoS8cT-79" vertex="1">
          <mxGeometry y="104" width="200" height="26" as="geometry" />
        </mxCell>
        <mxCell id="jZNxcZ7v8EToszQoS8cT-84" value="Possui" style="endArrow=open;html=1;endSize=12;startArrow=diamondThin;startSize=14;startFill=0;edgeStyle=orthogonalEdgeStyle;rounded=0;entryX=0.75;entryY=0;entryDx=0;entryDy=0;exitX=0;exitY=1.154;exitDx=0;exitDy=0;exitPerimeter=0;" parent="WIyWlLk6GJQsqaUBKTNV-1" source="jZNxcZ7v8EToszQoS8cT-82" target="jZNxcZ7v8EToszQoS8cT-51" edge="1">
          <mxGeometry relative="1" as="geometry">
            <mxPoint x="680" y="100" as="sourcePoint" />
            <mxPoint x="840" y="100" as="targetPoint" />
          </mxGeometry>
        </mxCell>
        <mxCell id="jZNxcZ7v8EToszQoS8cT-87" value="Possui" style="endArrow=open;html=1;endSize=12;startArrow=diamondThin;startSize=14;startFill=0;edgeStyle=orthogonalEdgeStyle;rounded=0;entryX=0.75;entryY=0;entryDx=0;entryDy=0;exitX=0;exitY=0.5;exitDx=0;exitDy=0;" parent="WIyWlLk6GJQsqaUBKTNV-1" source="jZNxcZ7v8EToszQoS8cT-80" target="jZNxcZ7v8EToszQoS8cT-46" edge="1">
          <mxGeometry relative="1" as="geometry">
            <mxPoint x="600" y="-50" as="sourcePoint" />
            <mxPoint x="760" y="-50" as="targetPoint" />
          </mxGeometry>
        </mxCell>
        <mxCell id="jZNxcZ7v8EToszQoS8cT-88" value="1-N" style="edgeLabel;resizable=0;html=1;align=left;verticalAlign=top;" parent="jZNxcZ7v8EToszQoS8cT-87" connectable="0" vertex="1">
          <mxGeometry x="-1" relative="1" as="geometry">
            <mxPoint x="-30" as="offset" />
          </mxGeometry>
        </mxCell>
        <mxCell id="jZNxcZ7v8EToszQoS8cT-89" value="1" style="edgeLabel;resizable=0;html=1;align=right;verticalAlign=top;" parent="jZNxcZ7v8EToszQoS8cT-87" connectable="0" vertex="1">
          <mxGeometry x="1" relative="1" as="geometry" />
        </mxCell>
        <mxCell id="jZNxcZ7v8EToszQoS8cT-90" value="1-1" style="edgeLabel;resizable=0;html=1;align=left;verticalAlign=top;" parent="WIyWlLk6GJQsqaUBKTNV-1" connectable="0" vertex="1">
          <mxGeometry x="980" y="90" as="geometry" />
        </mxCell>
        <mxCell id="jZNxcZ7v8EToszQoS8cT-91" value="Possui" style="endArrow=open;html=1;endSize=12;startArrow=diamondThin;startSize=14;startFill=0;edgeStyle=orthogonalEdgeStyle;rounded=0;entryX=1;entryY=0.5;entryDx=0;entryDy=0;exitX=0.553;exitY=1.155;exitDx=0;exitDy=0;exitPerimeter=0;" parent="WIyWlLk6GJQsqaUBKTNV-1" target="jZNxcZ7v8EToszQoS8cT-60" edge="1">
          <mxGeometry relative="1" as="geometry">
            <mxPoint x="1075.6" y="115.0000000000002" as="sourcePoint" />
            <mxPoint x="220" y="773.97" as="targetPoint" />
            <Array as="points">
              <mxPoint x="1076" y="773" />
            </Array>
          </mxGeometry>
        </mxCell>
        <mxCell id="jZNxcZ7v8EToszQoS8cT-92" value="1-N" style="edgeLabel;resizable=0;html=1;align=left;verticalAlign=top;" parent="jZNxcZ7v8EToszQoS8cT-91" connectable="0" vertex="1">
          <mxGeometry x="-1" relative="1" as="geometry">
            <mxPoint x="9" y="1" as="offset" />
          </mxGeometry>
        </mxCell>
        <mxCell id="jZNxcZ7v8EToszQoS8cT-94" value="&lt;u&gt;Usuario (abstrata)&lt;/u&gt;" style="swimlane;fontStyle=0;childLayout=stackLayout;horizontal=1;startSize=26;fillColor=none;horizontalStack=0;resizeParent=1;resizeParentMax=0;resizeLast=0;collapsible=1;marginBottom=0;whiteSpace=wrap;html=1;" parent="WIyWlLk6GJQsqaUBKTNV-1" vertex="1">
          <mxGeometry x="1464" y="-50" width="190" height="130" as="geometry" />
        </mxCell>
        <mxCell id="jZNxcZ7v8EToszQoS8cT-95" value="+ id: int" style="text;strokeColor=none;fillColor=none;align=left;verticalAlign=top;spacingLeft=4;spacingRight=4;overflow=hidden;rotatable=0;points=[[0,0.5],[1,0.5]];portConstraint=eastwest;whiteSpace=wrap;html=1;" parent="jZNxcZ7v8EToszQoS8cT-94" vertex="1">
          <mxGeometry y="26" width="190" height="26" as="geometry" />
        </mxCell>
        <mxCell id="jZNxcZ7v8EToszQoS8cT-96" value="+ nome: string" style="text;strokeColor=none;fillColor=none;align=left;verticalAlign=top;spacingLeft=4;spacingRight=4;overflow=hidden;rotatable=0;points=[[0,0.5],[1,0.5]];portConstraint=eastwest;whiteSpace=wrap;html=1;" parent="jZNxcZ7v8EToszQoS8cT-94" vertex="1">
          <mxGeometry y="52" width="190" height="26" as="geometry" />
        </mxCell>
        <mxCell id="jZNxcZ7v8EToszQoS8cT-97" value="+ email: string" style="text;strokeColor=none;fillColor=none;align=left;verticalAlign=top;spacingLeft=4;spacingRight=4;overflow=hidden;rotatable=0;points=[[0,0.5],[1,0.5]];portConstraint=eastwest;whiteSpace=wrap;html=1;" parent="jZNxcZ7v8EToszQoS8cT-94" vertex="1">
          <mxGeometry y="78" width="190" height="26" as="geometry" />
        </mxCell>
        <mxCell id="jZNxcZ7v8EToszQoS8cT-98" value="+ senha: string" style="text;strokeColor=none;fillColor=none;align=left;verticalAlign=top;spacingLeft=4;spacingRight=4;overflow=hidden;rotatable=0;points=[[0,0.5],[1,0.5]];portConstraint=eastwest;whiteSpace=wrap;html=1;" parent="jZNxcZ7v8EToszQoS8cT-94" vertex="1">
          <mxGeometry y="104" width="190" height="26" as="geometry" />
        </mxCell>
        <mxCell id="jZNxcZ7v8EToszQoS8cT-103" value="DonoSupermercado" style="html=1;whiteSpace=wrap;" parent="WIyWlLk6GJQsqaUBKTNV-1" vertex="1">
          <mxGeometry x="1330" y="200" width="160" height="30" as="geometry" />
        </mxCell>
        <mxCell id="jZNxcZ7v8EToszQoS8cT-104" value="GestorEstoque" style="html=1;whiteSpace=wrap;" parent="WIyWlLk6GJQsqaUBKTNV-1" vertex="1">
          <mxGeometry x="1560" y="200" width="140" height="30" as="geometry" />
        </mxCell>
        <mxCell id="jZNxcZ7v8EToszQoS8cT-105" value="PessoaComum" style="html=1;whiteSpace=wrap;" parent="WIyWlLk6GJQsqaUBKTNV-1" vertex="1">
          <mxGeometry x="1760" y="200" width="130" height="30" as="geometry" />
        </mxCell>
        <mxCell id="jZNxcZ7v8EToszQoS8cT-106" value="" style="html=1;verticalAlign=bottom;endArrow=block;curved=0;rounded=0;exitX=0.987;exitY=0.977;exitDx=0;exitDy=0;exitPerimeter=0;entryX=0.626;entryY=-0.049;entryDx=0;entryDy=0;entryPerimeter=0;" parent="WIyWlLk6GJQsqaUBKTNV-1" source="jZNxcZ7v8EToszQoS8cT-98" target="jZNxcZ7v8EToszQoS8cT-104" edge="1">
          <mxGeometry width="80" relative="1" as="geometry">
            <mxPoint x="1450" y="130" as="sourcePoint" />
            <mxPoint x="1600" y="180" as="targetPoint" />
          </mxGeometry>
        </mxCell>
        <mxCell id="jZNxcZ7v8EToszQoS8cT-107" value="" style="endArrow=open;endFill=1;endSize=12;html=1;rounded=0;exitX=1;exitY=0.5;exitDx=0;exitDy=0;entryX=0.5;entryY=0;entryDx=0;entryDy=0;" parent="WIyWlLk6GJQsqaUBKTNV-1" source="jZNxcZ7v8EToszQoS8cT-97" target="jZNxcZ7v8EToszQoS8cT-105" edge="1">
          <mxGeometry width="160" relative="1" as="geometry">
            <mxPoint x="1720" y="130" as="sourcePoint" />
            <mxPoint x="1880" y="130" as="targetPoint" />
            <Array as="points">
              <mxPoint x="1770" y="110" />
            </Array>
          </mxGeometry>
        </mxCell>
        <mxCell id="jZNxcZ7v8EToszQoS8cT-108" value="" style="endArrow=open;endFill=1;endSize=12;html=1;rounded=0;exitX=0.118;exitY=1.102;exitDx=0;exitDy=0;exitPerimeter=0;entryX=0.81;entryY=-0.013;entryDx=0;entryDy=0;entryPerimeter=0;" parent="WIyWlLk6GJQsqaUBKTNV-1" source="jZNxcZ7v8EToszQoS8cT-98" target="jZNxcZ7v8EToszQoS8cT-103" edge="1">
          <mxGeometry width="160" relative="1" as="geometry">
            <mxPoint x="1270" y="120" as="sourcePoint" />
            <mxPoint x="1420" y="190" as="targetPoint" />
          </mxGeometry>
        </mxCell>
        <mxCell id="jZNxcZ7v8EToszQoS8cT-110" value="Possui" style="endArrow=open;html=1;endSize=12;startArrow=diamondThin;startSize=14;startFill=0;edgeStyle=orthogonalEdgeStyle;rounded=0;exitX=1;exitY=0.5;exitDx=0;exitDy=0;entryX=0;entryY=0.5;entryDx=0;entryDy=0;" parent="WIyWlLk6GJQsqaUBKTNV-1" source="jZNxcZ7v8EToszQoS8cT-83" target="jZNxcZ7v8EToszQoS8cT-103" edge="1">
          <mxGeometry relative="1" as="geometry">
            <mxPoint x="1240" y="130" as="sourcePoint" />
            <mxPoint x="1400" y="130" as="targetPoint" />
          </mxGeometry>
        </mxCell>
        <mxCell id="jZNxcZ7v8EToszQoS8cT-111" value="1-1" style="edgeLabel;resizable=0;html=1;align=left;verticalAlign=top;" parent="jZNxcZ7v8EToszQoS8cT-110" connectable="0" vertex="1">
          <mxGeometry x="-1" relative="1" as="geometry" />
        </mxCell>
        <mxCell id="jZNxcZ7v8EToszQoS8cT-113" value="Possui" style="endArrow=open;html=1;endSize=12;startArrow=diamondThin;startSize=14;startFill=0;edgeStyle=orthogonalEdgeStyle;rounded=0;exitX=1;exitY=0.5;exitDx=0;exitDy=0;entryX=0.25;entryY=0;entryDx=0;entryDy=0;" parent="WIyWlLk6GJQsqaUBKTNV-1" source="jZNxcZ7v8EToszQoS8cT-81" target="jZNxcZ7v8EToszQoS8cT-104" edge="1">
          <mxGeometry relative="1" as="geometry">
            <mxPoint x="1230" y="60" as="sourcePoint" />
            <mxPoint x="1390" y="60" as="targetPoint" />
            <Array as="points">
              <mxPoint x="1410" y="45" />
              <mxPoint x="1410" y="140" />
              <mxPoint x="1595" y="140" />
            </Array>
          </mxGeometry>
        </mxCell>
        <mxCell id="jZNxcZ7v8EToszQoS8cT-114" value="1-N" style="edgeLabel;resizable=0;html=1;align=left;verticalAlign=top;" parent="jZNxcZ7v8EToszQoS8cT-113" connectable="0" vertex="1">
          <mxGeometry x="-1" relative="1" as="geometry" />
        </mxCell>
        <mxCell id="jZNxcZ7v8EToszQoS8cT-119" value="Possui" style="endArrow=open;html=1;endSize=12;startArrow=diamondThin;startSize=14;startFill=0;edgeStyle=orthogonalEdgeStyle;rounded=0;exitX=0.5;exitY=0;exitDx=0;exitDy=0;entryX=0.5;entryY=0;entryDx=0;entryDy=0;" parent="WIyWlLk6GJQsqaUBKTNV-1" source="jZNxcZ7v8EToszQoS8cT-94" target="jZNxcZ7v8EToszQoS8cT-0" edge="1">
          <mxGeometry relative="1" as="geometry">
            <mxPoint x="1370" y="-170" as="sourcePoint" />
            <mxPoint x="280" y="-170" as="targetPoint" />
            <Array as="points">
              <mxPoint x="1559" y="-170" />
              <mxPoint x="-20" y="-170" />
            </Array>
          </mxGeometry>
        </mxCell>
        <mxCell id="jZNxcZ7v8EToszQoS8cT-120" value="N-1" style="edgeLabel;resizable=0;html=1;align=left;verticalAlign=top;" parent="jZNxcZ7v8EToszQoS8cT-119" connectable="0" vertex="1">
          <mxGeometry x="-1" relative="1" as="geometry">
            <mxPoint x="11" y="-30" as="offset" />
          </mxGeometry>
        </mxCell>
      </root>
    </mxGraphModel>
  </diagram>
</mxfile>
